<svg width="32" height="19" viewBox="0 0 32 19" fill="none" xmlns="http://www.w3.org/2000/svg">
<path d="M0.151622 17.8821V0.427534H6.37321C7.73117 0.427534 8.85617 0.674693 9.74821 1.16901C10.6403 1.66333 11.3079 2.33947 11.7511 3.19742C12.1942 4.04969 12.4158 5.00992 12.4158 6.0781C12.4158 7.15197 12.1914 8.11788 11.7425 8.97583C11.2993 9.8281 10.6289 10.5042 9.73117 11.0042C8.83912 11.4986 7.71696 11.7457 6.36469 11.7457H2.08628V9.51276H6.12605C6.98401 9.51276 7.68003 9.36503 8.21412 9.06958C8.74821 8.76844 9.14026 8.35935 9.39026 7.84231C9.64026 7.32526 9.76526 6.73719 9.76526 6.0781C9.76526 5.41901 9.64026 4.83378 9.39026 4.32242C9.14026 3.81106 8.74537 3.41049 8.2056 3.12072C7.67151 2.83094 6.96696 2.68606 6.09196 2.68606H2.78515V17.8821H0.151622Z" fill="black"/>
<path d="M20.6488 18.1463C19.3817 18.1463 18.2908 17.8594 17.3761 17.2855C16.467 16.7059 15.7681 15.9076 15.2795 14.8906C14.7908 13.8736 14.5465 12.7088 14.5465 11.3963C14.5465 10.0667 14.7965 8.89344 15.2965 7.8764C15.7965 6.85367 16.5011 6.05538 17.4101 5.48151C18.3192 4.90765 19.3903 4.62072 20.6232 4.62072C21.6175 4.62072 22.5039 4.80538 23.2823 5.17469C24.0607 5.53833 24.6886 6.04969 25.1658 6.70878C25.6488 7.36788 25.9357 8.13776 26.0266 9.01844H23.5465C23.4101 8.40481 23.0976 7.8764 22.609 7.43322C22.1261 6.99003 21.4783 6.76844 20.6658 6.76844C19.9556 6.76844 19.3334 6.95594 18.7994 7.33094C18.2709 7.70026 17.859 8.22867 17.5636 8.91617C17.2681 9.59799 17.1204 10.4048 17.1204 11.3366C17.1204 12.2912 17.2653 13.115 17.555 13.8082C17.8448 14.5014 18.2539 15.0383 18.7823 15.419C19.3164 15.7997 19.9442 15.99 20.6658 15.99C21.1488 15.99 21.5863 15.902 21.9783 15.7258C22.3761 15.544 22.7084 15.2855 22.9755 14.9503C23.2482 14.615 23.4386 14.2116 23.5465 13.74H26.0266C25.9357 14.5866 25.6601 15.3423 25.1999 16.0071C24.7397 16.6719 24.1232 17.1946 23.3505 17.5753C22.5834 17.9559 21.6829 18.1463 20.6488 18.1463ZM31.3001 0.427534V17.8821H28.7518V0.427534H31.3001Z" fill="#4CAF4F"/>
</svg>
